<svg id="Capa_1" enable-background="new 0 0 512 512" height="512" viewBox="0 0 512 512" width="512" xmlns="http://www.w3.org/2000/svg"><g><path d="m216.4 381.868-52.266 52.266c-23.784 23.784-62.483 23.784-86.267 0s-23.784-62.483 0-86.267l52.266-52.266c-6.654-17.181-10.133-35.623-10.133-54.601 0-7.313.523-14.546 1.539-21.659l-86.099 86.099c-47.253 47.253-47.254 123.866 0 171.12 47.253 47.254 123.866 47.254 171.12 0l86.099-86.099c-7.113 1.016-14.346 1.539-21.659 1.539-18.977 0-37.419-3.479-54.6-10.132z"/><path d="m476.56 35.44c-47.253-47.253-123.866-47.253-171.12 0l-49.393 49.393 42.426 42.426 49.393-49.393c23.784-23.784 62.483-23.784 86.267 0s23.784 62.483 0 86.267l-120 120c-23.784 23.784-62.483 23.784-86.267 0s-23.784-62.483 0-86.267l49.394-49.394-42.426-42.426-49.394 49.394c-47.253 47.253-47.254 123.866 0 171.12s123.866 47.253 171.12 0l120-120c47.253-47.254 47.253-123.867 0-171.12z"/></g></svg>